<?xml version="1.0" standalone="no"?>
<!DOCTYPE svg PUBLIC "-//W3C//DTD SVG 20010904//EN" "http://www.w3.org/TR/2001/REC-SVG-20010904/DTD/svg10.dtd">
<svg xmlns="http://www.w3.org/2000/svg" version="1.0" width="292.000000pt" height="283.000000pt" viewBox="0 0 292.000000 283.000000" preserveAspectRatio="xMidYMid meet">
<metadata>
Created by potrace 1.16, written by Peter Selinger 2001-2019
<meta name="Producer" content="Online-Convert"/></metadata>
<g transform="translate(0.000000,283.000000) scale(0.100000,-0.100000)" fill="#000000" stroke="none">
<path d="M1336 2612 c-87 -34 -184 -120 -220 -195 -59 -122 -74 -303 -36 -447 11 -41 20 -78 20 -81 0 -3 -17 -15 -39 -27 -44 -25 -101 -85 -128 -134 -13 -24 -18 -55 -18 -118 0 -93 16 -137 75 -204 17 -18 30 -36 30 -39 0 -3 -42 -26 -92 -52 -115 -58 -172 -100 -237 -171 -107 -117 -199 -322 -301 -672 -40 -138 -64 -354 -46 -409 l7 -23 1114 0 1114 0 -11 33 c-5 17 -12 43 -14 57 -14 79 -65 284 -121 485 -117 417 -167 541 -251 622 -72 68 -122 93 -273 133 -77 20 -142 40 -145 43 -3 3 -2 25 1 50 6 40 11 46 45 60 39 15 84 67 120 138 20 38 50 180 50 236 0 20 8 42 20 55 37 40 46 119 18 155 -6 7 -3 23 8 45 30 56 24 132 -16 207 -69 129 -167 211 -306 256 -64 21 -95 25 -188 24 -96 0 -121 -4 -180 -27z m469 -267 c14 -25 48 -67 74 -93 26 -26 57 -61 69 -78 l21 -31 -45 1 c-39 1 -50 -3 -75 -32 -16 -18 -29 -39 -29 -47 0 -24 -28 -17 -35 8 -28 90 -149 108 -213 31 l-29 -35 -79 3 -79 3 55 18 c30 10 77 30 105 44 66 34 176 146 201 206 10 26 22 47 26 47 3 0 18 -20 33 -45z m-79 -248 c38 -33 38 -98 1 -135 -58 -57 -147 -16 -147 68 0 75 89 116 146 67z m256 -4 c46 -42 3 -143 -62 -143 -57 0 -92 98 -50 140 25 25 86 27 112 3z m-699 -65 c15 -8 62 -11 143 -9 l120 3 13 -41 c29 -98 155 -107 211 -16 17 27 28 35 51 35 l30 0 -3 -97 -3 -98 -42 1 c-46 1 -55 -9 -24 -26 28 -15 73 -12 99 5 19 14 21 22 15 75 -6 60 -6 60 21 60 25 0 26 -2 26 -53 0 -117 -51 -238 -120 -283 -35 -23 -47 -26 -102 -21 -35 3 -84 12 -110 20 -39 13 -48 14 -48 3 0 -18 88 -74 128 -82 18 -4 32 -12 32 -18 -1 -29 -74 -281 -89 -305 -7 -11 -19 -8 -62 15 -59 33 -106 90 -206 256 -60 100 -62 104 -53 148 4 25 12 87 16 139 6 88 6 94 -11 87 -38 -14 -81 4 -104 44 -23 41 -28 118 -11 151 12 22 50 25 83 7z m53 -610 c27 -45 63 -101 81 -125 18 -24 33 -45 33 -48 0 -2 -19 -14 -42 -26 -24 -12 -58 -32 -76 -46 -18 -14 -35 -23 -36 -22 -9 11 -59 103 -90 164 l-35 70 57 57 c31 32 58 57 59 58 0 0 23 -37 49 -82z m461 -74 c42 -19 43 -20 78 -129 19 -61 35 -113 35 -117 0 -3 -29 5 -65 18 -72 26 -95 29 -95 14 0 -26 -109 -254 -158 -330 -64 -100 -126 -167 -204 -221 -66 -45 -93 -51 -53 -11 95 94 205 279 291 489 19 48 49 114 64 146 16 32 34 82 41 113 7 30 15 53 18 51 3 -2 25 -12 48 -23z m-722 -696 c118 -171 213 -313 212 -315 -1 -1 -16 2 -33 5 -25 6 -47 28 -106 107 -139 187 -202 287 -187 296 30 19 46 5 114 -93z m1135 -358 c-6 -63 -13 -134 -17 -158 l-5 -42 -49 0 c-27 0 -49 1 -49 3 0 2 12 37 26 78 37 107 84 316 84 374 0 28 3 82 8 120 6 59 7 44 10 -95 2 -91 -2 -217 -8 -280z m-837 -48 c49 -22 87 -56 118 -107 24 -39 24 -45 -4 -45 -13 0 -37 15 -56 35 -18 20 -45 42 -60 49 -30 16 -101 31 -101 22 0 -3 27 -19 60 -36 32 -16 64 -40 71 -51 11 -21 10 -22 -24 -16 -20 3 -52 13 -71 22 -41 20 -72 10 -35 -11 21 -11 -3 -13 -168 -14 -106 0 -193 3 -193 8 0 4 11 25 23 47 l23 40 78 -3 78 -4 44 47 43 48 64 -5 c35 -3 84 -15 110 -26z"/>
</g>
</svg>
